<svg width="50" height="50" viewBox="0 0 50 50" fill="none" xmlns="http://www.w3.org/2000/svg">
<path d="M12.9687 10.0229C12.5758 9.64343 12.0495 9.43344 11.5033 9.43819C10.957 9.44294 10.4345 9.66204 10.0482 10.0483C9.66198 10.4346 9.44287 10.9571 9.43813 11.5033C9.43338 12.0496 9.64337 12.5758 10.0229 12.9688L22.0541 25L10.0208 37.0313C9.8218 37.2234 9.66309 37.4533 9.5539 37.7075C9.44472 37.9617 9.38725 38.2351 9.38484 38.5117C9.38244 38.7883 9.43515 39.0626 9.5399 39.3187C9.64466 39.5747 9.79935 39.8073 9.99496 40.0029C10.1906 40.1985 10.4232 40.3532 10.6792 40.458C10.9352 40.5627 11.2096 40.6154 11.4862 40.613C11.7628 40.6106 12.0362 40.5532 12.2904 40.444C12.5445 40.3348 12.7744 40.1761 12.9666 39.9771L24.9999 27.9458L37.0312 39.9771C37.4241 40.3566 37.9504 40.5666 38.4966 40.5618C39.0429 40.5571 39.5654 40.338 39.9517 39.9517C40.3379 39.5654 40.557 39.0429 40.5618 38.4967C40.5665 37.9504 40.3565 37.4242 39.977 37.0313L27.9458 25L39.977 12.9688C40.3565 12.5758 40.5665 12.0496 40.5618 11.5033C40.557 10.9571 40.3379 10.4346 39.9517 10.0483C39.5654 9.66204 39.0429 9.44294 38.4966 9.43819C37.9504 9.43344 37.4241 9.64343 37.0312 10.0229L24.9999 22.0542L12.9687 10.0208V10.0229Z" fill="white"/>
</svg>
