<svg width="75" height="75" viewBox="0 0 75 75" fill="none" xmlns="http://www.w3.org/2000/svg">
<path d="M48.75 49.275L53.1375 27C56.1 25.3875 58.125 22.3125 58.125 18.75C58.125 16.2636 57.1373 13.879 55.3791 12.1209C53.621 10.3627 51.2364 9.375 48.75 9.375C46.2636 9.375 43.879 10.3627 42.1209 12.1209C40.3627 13.879 39.375 16.2636 39.375 18.75C39.375 22.3125 41.4 25.3875 44.3625 27L48.75 49.275ZM48.75 13.125C51.8625 13.125 54.375 15.6375 54.375 18.75C54.375 21.8625 51.8625 24.375 48.75 24.375C45.6375 24.375 43.125 21.8625 43.125 18.75C43.125 15.6375 45.6375 13.125 48.75 13.125ZM55.2 31.125L67.5 26.1375V59.8875L49.2 67.5L26.25 59.8875L7.5 67.3875V33.6375L26.25 26.1375L42.2625 31.425L48.75 58.8L55.2 31.125Z" fill="white"/>
</svg>
